<svg width="1440" height="761" viewBox="0 0 1440 761" fill="none" xmlns="http://www.w3.org/2000/svg">
<g filter="url(#filter0_f_1_849)">
<path d="M2 266.831V731H725.182H1440V334.283L1388.84 327.288L1341.61 348.273L1312.09 387.745L1291.92 429.715L1251.09 421.221L1203.37 369.758H1137.94L1151.22 269.329L1100.06 287.316L1065.13 121.934L971.654 152.912L858.011 140.421L824.066 49.4861L725.182 30L685.333 177.895L607.111 190.386L559.391 132.427L461.491 171.399L418.69 221.364L340.469 287.316L228.302 295.81L128.926 307.302H94.4885L2 266.831Z" fill="url(#paint0_linear_1_849)"/>
</g>
<defs>
<filter id="filter0_f_1_849" x="-28" y="0" width="1498" height="761" filterUnits="userSpaceOnUse" color-interpolation-filters="sRGB">
<feFlood flood-opacity="0" result="BackgroundImageFix"/>
<feBlend mode="normal" in="SourceGraphic" in2="BackgroundImageFix" result="shape"/>
<feGaussianBlur stdDeviation="15" result="effect1_foregroundBlur_1_849"/>
</filter>
<linearGradient id="paint0_linear_1_849" x1="689.761" y1="168.901" x2="722.232" y2="618.509" gradientUnits="userSpaceOnUse">
<stop stop-color="#147EAB" stop-opacity="0"/>
<stop offset="0.992555" stop-color="#083345"/>
</linearGradient>
</defs>
</svg>
